<mxfile host="app.diagrams.net" agent="Mozilla/5.0 (Windows NT 6.1; Win64; x64) AppleWebKit/537.36 (KHTML, like Gecko) Chrome/103.0.0.0 Safari/537.36" version="25.0.1">
  <diagram name="Página-1" id="GNYlMHEG5KCHIat6467o">
    <mxGraphModel dx="1114" dy="616" grid="1" gridSize="10" guides="1" tooltips="1" connect="1" arrows="1" fold="1" page="1" pageScale="1" pageWidth="827" pageHeight="1169" math="0" shadow="0">
      <root>
        <mxCell id="0" />
        <mxCell id="1" parent="0" />
        <mxCell id="OkYYDEhZV9pFGUgBfB1e-5" style="edgeStyle=orthogonalEdgeStyle;rounded=0;orthogonalLoop=1;jettySize=auto;html=1;entryX=0.5;entryY=0;entryDx=0;entryDy=0;" edge="1" parent="1" source="OkYYDEhZV9pFGUgBfB1e-1" target="OkYYDEhZV9pFGUgBfB1e-3">
          <mxGeometry relative="1" as="geometry" />
        </mxCell>
        <mxCell id="OkYYDEhZV9pFGUgBfB1e-1" value="" style="ellipse;whiteSpace=wrap;html=1;aspect=fixed;" vertex="1" parent="1">
          <mxGeometry x="394" y="80" width="40" height="40" as="geometry" />
        </mxCell>
        <mxCell id="OkYYDEhZV9pFGUgBfB1e-9" style="edgeStyle=orthogonalEdgeStyle;rounded=0;orthogonalLoop=1;jettySize=auto;html=1;entryX=0.5;entryY=0;entryDx=0;entryDy=0;" edge="1" parent="1" source="OkYYDEhZV9pFGUgBfB1e-3" target="OkYYDEhZV9pFGUgBfB1e-8">
          <mxGeometry relative="1" as="geometry">
            <Array as="points">
              <mxPoint x="636" y="190" />
              <mxPoint x="636" y="240" />
            </Array>
          </mxGeometry>
        </mxCell>
        <mxCell id="OkYYDEhZV9pFGUgBfB1e-3" value="para cont&amp;nbsp; de 0 até 7" style="shape=hexagon;perimeter=hexagonPerimeter2;whiteSpace=wrap;html=1;fixedSize=1;" vertex="1" parent="1">
          <mxGeometry x="278" y="150" width="271" height="80" as="geometry" />
        </mxCell>
        <mxCell id="OkYYDEhZV9pFGUgBfB1e-21" style="edgeStyle=orthogonalEdgeStyle;rounded=0;orthogonalLoop=1;jettySize=auto;html=1;entryX=0;entryY=0.5;entryDx=0;entryDy=0;" edge="1" parent="1" source="OkYYDEhZV9pFGUgBfB1e-4" target="OkYYDEhZV9pFGUgBfB1e-3">
          <mxGeometry relative="1" as="geometry">
            <Array as="points">
              <mxPoint x="258" y="310" />
              <mxPoint x="258" y="190" />
            </Array>
          </mxGeometry>
        </mxCell>
        <mxCell id="OkYYDEhZV9pFGUgBfB1e-4" value="idade[cont]" style="shape=card;whiteSpace=wrap;html=1;" vertex="1" parent="1">
          <mxGeometry x="374" y="270" width="80" height="60" as="geometry" />
        </mxCell>
        <mxCell id="OkYYDEhZV9pFGUgBfB1e-6" style="edgeStyle=orthogonalEdgeStyle;rounded=0;orthogonalLoop=1;jettySize=auto;html=1;entryX=0.5;entryY=0;entryDx=0;entryDy=0;entryPerimeter=0;" edge="1" parent="1" source="OkYYDEhZV9pFGUgBfB1e-3" target="OkYYDEhZV9pFGUgBfB1e-4">
          <mxGeometry relative="1" as="geometry" />
        </mxCell>
        <mxCell id="OkYYDEhZV9pFGUgBfB1e-12" style="edgeStyle=orthogonalEdgeStyle;rounded=0;orthogonalLoop=1;jettySize=auto;html=1;entryX=0.5;entryY=0;entryDx=0;entryDy=0;" edge="1" parent="1" source="OkYYDEhZV9pFGUgBfB1e-8" target="OkYYDEhZV9pFGUgBfB1e-11">
          <mxGeometry relative="1" as="geometry" />
        </mxCell>
        <mxCell id="OkYYDEhZV9pFGUgBfB1e-20" style="edgeStyle=orthogonalEdgeStyle;rounded=0;orthogonalLoop=1;jettySize=auto;html=1;entryX=0;entryY=0.5;entryDx=0;entryDy=0;" edge="1" parent="1" source="OkYYDEhZV9pFGUgBfB1e-8" target="OkYYDEhZV9pFGUgBfB1e-19">
          <mxGeometry relative="1" as="geometry" />
        </mxCell>
        <mxCell id="OkYYDEhZV9pFGUgBfB1e-8" value="para cont&amp;nbsp; de 0 até 7" style="shape=hexagon;perimeter=hexagonPerimeter2;whiteSpace=wrap;html=1;fixedSize=1;" vertex="1" parent="1">
          <mxGeometry x="500" y="260" width="271" height="80" as="geometry" />
        </mxCell>
        <mxCell id="OkYYDEhZV9pFGUgBfB1e-17" style="edgeStyle=orthogonalEdgeStyle;rounded=0;orthogonalLoop=1;jettySize=auto;html=1;entryX=1;entryY=0.5;entryDx=0;entryDy=0;" edge="1" parent="1" source="OkYYDEhZV9pFGUgBfB1e-10" target="OkYYDEhZV9pFGUgBfB1e-15">
          <mxGeometry relative="1" as="geometry">
            <Array as="points">
              <mxPoint x="750" y="550" />
            </Array>
          </mxGeometry>
        </mxCell>
        <mxCell id="OkYYDEhZV9pFGUgBfB1e-10" value="idade[cont]" style="shape=document;whiteSpace=wrap;html=1;boundedLbl=1;" vertex="1" parent="1">
          <mxGeometry x="680" y="430" width="120" height="80" as="geometry" />
        </mxCell>
        <mxCell id="OkYYDEhZV9pFGUgBfB1e-16" style="edgeStyle=orthogonalEdgeStyle;rounded=0;orthogonalLoop=1;jettySize=auto;html=1;entryX=0.5;entryY=0;entryDx=0;entryDy=0;" edge="1" parent="1" source="OkYYDEhZV9pFGUgBfB1e-11" target="OkYYDEhZV9pFGUgBfB1e-15">
          <mxGeometry relative="1" as="geometry" />
        </mxCell>
        <mxCell id="OkYYDEhZV9pFGUgBfB1e-11" value="idade[cont] &amp;lt; 18" style="rhombus;whiteSpace=wrap;html=1;" vertex="1" parent="1">
          <mxGeometry x="570.5" y="360" width="130" height="80" as="geometry" />
        </mxCell>
        <mxCell id="OkYYDEhZV9pFGUgBfB1e-13" style="edgeStyle=orthogonalEdgeStyle;rounded=0;orthogonalLoop=1;jettySize=auto;html=1;entryX=0.633;entryY=0.063;entryDx=0;entryDy=0;entryPerimeter=0;" edge="1" parent="1" source="OkYYDEhZV9pFGUgBfB1e-11" target="OkYYDEhZV9pFGUgBfB1e-10">
          <mxGeometry relative="1" as="geometry">
            <Array as="points">
              <mxPoint x="756" y="400" />
            </Array>
          </mxGeometry>
        </mxCell>
        <mxCell id="OkYYDEhZV9pFGUgBfB1e-14" value="V" style="edgeLabel;html=1;align=center;verticalAlign=middle;resizable=0;points=[];" vertex="1" connectable="0" parent="OkYYDEhZV9pFGUgBfB1e-13">
          <mxGeometry x="-0.3263" y="4" relative="1" as="geometry">
            <mxPoint x="1" as="offset" />
          </mxGeometry>
        </mxCell>
        <mxCell id="OkYYDEhZV9pFGUgBfB1e-15" value="" style="ellipse;whiteSpace=wrap;html=1;aspect=fixed;" vertex="1" parent="1">
          <mxGeometry x="615" y="530" width="40" height="40" as="geometry" />
        </mxCell>
        <mxCell id="OkYYDEhZV9pFGUgBfB1e-18" style="edgeStyle=orthogonalEdgeStyle;rounded=0;orthogonalLoop=1;jettySize=auto;html=1;entryX=0;entryY=0.588;entryDx=0;entryDy=0;entryPerimeter=0;" edge="1" parent="1" source="OkYYDEhZV9pFGUgBfB1e-15" target="OkYYDEhZV9pFGUgBfB1e-8">
          <mxGeometry relative="1" as="geometry">
            <Array as="points">
              <mxPoint x="480" y="550" />
              <mxPoint x="480" y="307" />
            </Array>
          </mxGeometry>
        </mxCell>
        <mxCell id="OkYYDEhZV9pFGUgBfB1e-19" value="" style="ellipse;whiteSpace=wrap;html=1;aspect=fixed;" vertex="1" parent="1">
          <mxGeometry x="800" y="280" width="40" height="40" as="geometry" />
        </mxCell>
        <mxCell id="OkYYDEhZV9pFGUgBfB1e-25" style="edgeStyle=orthogonalEdgeStyle;rounded=0;orthogonalLoop=1;jettySize=auto;html=1;entryX=0.5;entryY=0;entryDx=0;entryDy=0;" edge="1" parent="1" source="OkYYDEhZV9pFGUgBfB1e-22" target="OkYYDEhZV9pFGUgBfB1e-23">
          <mxGeometry relative="1" as="geometry" />
        </mxCell>
        <mxCell id="OkYYDEhZV9pFGUgBfB1e-22" value="" style="ellipse;whiteSpace=wrap;html=1;aspect=fixed;" vertex="1" parent="1">
          <mxGeometry x="340" y="660" width="40" height="40" as="geometry" />
        </mxCell>
        <mxCell id="OkYYDEhZV9pFGUgBfB1e-26" style="edgeStyle=orthogonalEdgeStyle;rounded=0;orthogonalLoop=1;jettySize=auto;html=1;" edge="1" parent="1" source="OkYYDEhZV9pFGUgBfB1e-23">
          <mxGeometry relative="1" as="geometry">
            <mxPoint x="360" y="820" as="targetPoint" />
          </mxGeometry>
        </mxCell>
        <mxCell id="OkYYDEhZV9pFGUgBfB1e-48" style="edgeStyle=orthogonalEdgeStyle;rounded=0;orthogonalLoop=1;jettySize=auto;html=1;entryX=0.5;entryY=0;entryDx=0;entryDy=0;" edge="1" parent="1" source="OkYYDEhZV9pFGUgBfB1e-23" target="OkYYDEhZV9pFGUgBfB1e-42">
          <mxGeometry relative="1" as="geometry">
            <Array as="points">
              <mxPoint x="500" y="760" />
              <mxPoint x="500" y="695" />
              <mxPoint x="679" y="695" />
            </Array>
          </mxGeometry>
        </mxCell>
        <mxCell id="OkYYDEhZV9pFGUgBfB1e-23" value="para cont&amp;nbsp; de 0 até 9" style="shape=hexagon;perimeter=hexagonPerimeter2;whiteSpace=wrap;html=1;fixedSize=1;" vertex="1" parent="1">
          <mxGeometry x="224.5" y="720" width="271" height="80" as="geometry" />
        </mxCell>
        <mxCell id="OkYYDEhZV9pFGUgBfB1e-33" style="edgeStyle=orthogonalEdgeStyle;rounded=0;orthogonalLoop=1;jettySize=auto;html=1;exitX=0.5;exitY=1;exitDx=0;exitDy=0;exitPerimeter=0;entryX=0.5;entryY=0;entryDx=0;entryDy=0;" edge="1" parent="1" source="OkYYDEhZV9pFGUgBfB1e-24" target="OkYYDEhZV9pFGUgBfB1e-28">
          <mxGeometry relative="1" as="geometry" />
        </mxCell>
        <mxCell id="OkYYDEhZV9pFGUgBfB1e-24" value="num" style="shape=card;whiteSpace=wrap;html=1;" vertex="1" parent="1">
          <mxGeometry x="320" y="821" width="80" height="60" as="geometry" />
        </mxCell>
        <mxCell id="OkYYDEhZV9pFGUgBfB1e-28" value="num &amp;gt; = 0" style="rhombus;whiteSpace=wrap;html=1;" vertex="1" parent="1">
          <mxGeometry x="297" y="900" width="126" height="90" as="geometry" />
        </mxCell>
        <mxCell id="OkYYDEhZV9pFGUgBfB1e-37" style="edgeStyle=orthogonalEdgeStyle;rounded=0;orthogonalLoop=1;jettySize=auto;html=1;entryX=1;entryY=0.5;entryDx=0;entryDy=0;" edge="1" parent="1" source="OkYYDEhZV9pFGUgBfB1e-30" target="OkYYDEhZV9pFGUgBfB1e-32">
          <mxGeometry relative="1" as="geometry">
            <Array as="points">
              <mxPoint x="480" y="1080" />
            </Array>
          </mxGeometry>
        </mxCell>
        <mxCell id="OkYYDEhZV9pFGUgBfB1e-30" value="v[cont] = 2 * num" style="rounded=0;whiteSpace=wrap;html=1;" vertex="1" parent="1">
          <mxGeometry x="423" y="970" width="120" height="60" as="geometry" />
        </mxCell>
        <mxCell id="OkYYDEhZV9pFGUgBfB1e-38" style="edgeStyle=orthogonalEdgeStyle;rounded=0;orthogonalLoop=1;jettySize=auto;html=1;entryX=0;entryY=0.5;entryDx=0;entryDy=0;" edge="1" parent="1" source="OkYYDEhZV9pFGUgBfB1e-31" target="OkYYDEhZV9pFGUgBfB1e-32">
          <mxGeometry relative="1" as="geometry">
            <Array as="points">
              <mxPoint x="240" y="1080" />
            </Array>
          </mxGeometry>
        </mxCell>
        <mxCell id="OkYYDEhZV9pFGUgBfB1e-31" value="v[cont] = - 1" style="rounded=0;whiteSpace=wrap;html=1;" vertex="1" parent="1">
          <mxGeometry x="190" y="970" width="120" height="60" as="geometry" />
        </mxCell>
        <mxCell id="OkYYDEhZV9pFGUgBfB1e-39" style="edgeStyle=orthogonalEdgeStyle;rounded=0;orthogonalLoop=1;jettySize=auto;html=1;entryX=0;entryY=0.5;entryDx=0;entryDy=0;" edge="1" parent="1" source="OkYYDEhZV9pFGUgBfB1e-32" target="OkYYDEhZV9pFGUgBfB1e-23">
          <mxGeometry relative="1" as="geometry">
            <Array as="points">
              <mxPoint x="370" y="1120" />
              <mxPoint x="170" y="1120" />
              <mxPoint x="170" y="760" />
            </Array>
          </mxGeometry>
        </mxCell>
        <mxCell id="OkYYDEhZV9pFGUgBfB1e-32" value="" style="ellipse;whiteSpace=wrap;html=1;aspect=fixed;" vertex="1" parent="1">
          <mxGeometry x="350" y="1060" width="40" height="40" as="geometry" />
        </mxCell>
        <mxCell id="OkYYDEhZV9pFGUgBfB1e-34" style="edgeStyle=orthogonalEdgeStyle;rounded=0;orthogonalLoop=1;jettySize=auto;html=1;entryX=0.417;entryY=0;entryDx=0;entryDy=0;entryPerimeter=0;" edge="1" parent="1" source="OkYYDEhZV9pFGUgBfB1e-28" target="OkYYDEhZV9pFGUgBfB1e-30">
          <mxGeometry relative="1" as="geometry">
            <Array as="points">
              <mxPoint x="473" y="945" />
            </Array>
          </mxGeometry>
        </mxCell>
        <mxCell id="OkYYDEhZV9pFGUgBfB1e-35" style="edgeStyle=orthogonalEdgeStyle;rounded=0;orthogonalLoop=1;jettySize=auto;html=1;entryX=0.383;entryY=-0.033;entryDx=0;entryDy=0;entryPerimeter=0;" edge="1" parent="1" source="OkYYDEhZV9pFGUgBfB1e-28" target="OkYYDEhZV9pFGUgBfB1e-31">
          <mxGeometry relative="1" as="geometry">
            <Array as="points">
              <mxPoint x="236" y="940" />
            </Array>
          </mxGeometry>
        </mxCell>
        <mxCell id="OkYYDEhZV9pFGUgBfB1e-45" style="edgeStyle=orthogonalEdgeStyle;rounded=0;orthogonalLoop=1;jettySize=auto;html=1;entryX=0.5;entryY=0;entryDx=0;entryDy=0;" edge="1" parent="1" source="OkYYDEhZV9pFGUgBfB1e-42" target="OkYYDEhZV9pFGUgBfB1e-44">
          <mxGeometry relative="1" as="geometry" />
        </mxCell>
        <mxCell id="OkYYDEhZV9pFGUgBfB1e-49" style="edgeStyle=orthogonalEdgeStyle;rounded=0;orthogonalLoop=1;jettySize=auto;html=1;exitX=1;exitY=0.5;exitDx=0;exitDy=0;entryX=0;entryY=0.5;entryDx=0;entryDy=0;" edge="1" parent="1" source="OkYYDEhZV9pFGUgBfB1e-42" target="OkYYDEhZV9pFGUgBfB1e-46">
          <mxGeometry relative="1" as="geometry" />
        </mxCell>
        <mxCell id="OkYYDEhZV9pFGUgBfB1e-42" value="para cont&amp;nbsp; de 0 até 9" style="shape=hexagon;perimeter=hexagonPerimeter2;whiteSpace=wrap;html=1;fixedSize=1;" vertex="1" parent="1">
          <mxGeometry x="543" y="715" width="271" height="80" as="geometry" />
        </mxCell>
        <mxCell id="OkYYDEhZV9pFGUgBfB1e-47" style="edgeStyle=orthogonalEdgeStyle;rounded=0;orthogonalLoop=1;jettySize=auto;html=1;entryX=0;entryY=0.5;entryDx=0;entryDy=0;" edge="1" parent="1" source="OkYYDEhZV9pFGUgBfB1e-44" target="OkYYDEhZV9pFGUgBfB1e-42">
          <mxGeometry relative="1" as="geometry">
            <Array as="points">
              <mxPoint x="523" y="870" />
              <mxPoint x="523" y="755" />
            </Array>
          </mxGeometry>
        </mxCell>
        <mxCell id="OkYYDEhZV9pFGUgBfB1e-44" value="v[cont]&amp;nbsp;" style="shape=document;whiteSpace=wrap;html=1;boundedLbl=1;" vertex="1" parent="1">
          <mxGeometry x="618.5" y="830" width="120" height="80" as="geometry" />
        </mxCell>
        <mxCell id="OkYYDEhZV9pFGUgBfB1e-46" value="" style="ellipse;whiteSpace=wrap;html=1;aspect=fixed;" vertex="1" parent="1">
          <mxGeometry x="860" y="735" width="40" height="40" as="geometry" />
        </mxCell>
      </root>
    </mxGraphModel>
  </diagram>
</mxfile>
